<mxfile host="app.diagrams.net" modified="2023-07-30T09:22:27.474Z" agent="Mozilla/5.0 (Windows NT 10.0; Win64; x64) AppleWebKit/537.36 (KHTML, like Gecko) Chrome/115.0.0.0 Safari/537.36" etag="GgRcw0aSEOk6eyZyMhgb" version="21.6.6" type="github">
  <diagram name="第 1 页" id="V5XuhAsXkyWBFnd4CzGN">
    <mxGraphModel dx="1579" dy="901" grid="1" gridSize="10" guides="1" tooltips="1" connect="1" arrows="1" fold="1" page="1" pageScale="1" pageWidth="827" pageHeight="1169" math="0" shadow="0">
      <root>
        <mxCell id="0" />
        <mxCell id="1" parent="0" />
        <mxCell id="2oByHQfNDszcQ_HSohr_-1" value="Kafka Stream DSL DAG" style="swimlane;whiteSpace=wrap;html=1;startSize=40;fontSize=16;" vertex="1" parent="1">
          <mxGeometry x="40" y="150" width="290" height="720" as="geometry" />
        </mxCell>
        <mxCell id="2oByHQfNDszcQ_HSohr_-4" style="edgeStyle=orthogonalEdgeStyle;rounded=0;orthogonalLoop=1;jettySize=auto;html=1;" edge="1" parent="2oByHQfNDszcQ_HSohr_-1" source="2oByHQfNDszcQ_HSohr_-2" target="2oByHQfNDszcQ_HSohr_-3">
          <mxGeometry relative="1" as="geometry" />
        </mxCell>
        <mxCell id="2oByHQfNDszcQ_HSohr_-2" value="Source&lt;br&gt;Processor" style="ellipse;whiteSpace=wrap;html=1;aspect=fixed;" vertex="1" parent="2oByHQfNDszcQ_HSohr_-1">
          <mxGeometry x="100" y="80" width="80" height="80" as="geometry" />
        </mxCell>
        <mxCell id="2oByHQfNDszcQ_HSohr_-6" style="edgeStyle=orthogonalEdgeStyle;rounded=0;orthogonalLoop=1;jettySize=auto;html=1;" edge="1" parent="2oByHQfNDszcQ_HSohr_-1" source="2oByHQfNDszcQ_HSohr_-3" target="2oByHQfNDszcQ_HSohr_-5">
          <mxGeometry relative="1" as="geometry" />
        </mxCell>
        <mxCell id="2oByHQfNDszcQ_HSohr_-3" value="SelectKey&lt;br&gt;Processor" style="ellipse;whiteSpace=wrap;html=1;aspect=fixed;" vertex="1" parent="2oByHQfNDszcQ_HSohr_-1">
          <mxGeometry x="100" y="200" width="80" height="80" as="geometry" />
        </mxCell>
        <mxCell id="2oByHQfNDszcQ_HSohr_-8" style="edgeStyle=orthogonalEdgeStyle;rounded=0;orthogonalLoop=1;jettySize=auto;html=1;" edge="1" parent="2oByHQfNDszcQ_HSohr_-1" source="2oByHQfNDszcQ_HSohr_-5" target="2oByHQfNDszcQ_HSohr_-7">
          <mxGeometry relative="1" as="geometry" />
        </mxCell>
        <mxCell id="2oByHQfNDszcQ_HSohr_-5" value="Repartition&lt;br&gt;Processor" style="ellipse;whiteSpace=wrap;html=1;aspect=fixed;" vertex="1" parent="2oByHQfNDszcQ_HSohr_-1">
          <mxGeometry x="100" y="320" width="80" height="80" as="geometry" />
        </mxCell>
        <mxCell id="2oByHQfNDszcQ_HSohr_-10" value="" style="edgeStyle=orthogonalEdgeStyle;rounded=0;orthogonalLoop=1;jettySize=auto;html=1;" edge="1" parent="2oByHQfNDszcQ_HSohr_-1" source="2oByHQfNDszcQ_HSohr_-7" target="2oByHQfNDszcQ_HSohr_-9">
          <mxGeometry relative="1" as="geometry" />
        </mxCell>
        <mxCell id="2oByHQfNDszcQ_HSohr_-7" value="Map&lt;br&gt;Processor" style="ellipse;whiteSpace=wrap;html=1;aspect=fixed;" vertex="1" parent="2oByHQfNDszcQ_HSohr_-1">
          <mxGeometry x="100" y="440" width="80" height="80" as="geometry" />
        </mxCell>
        <mxCell id="2oByHQfNDszcQ_HSohr_-9" value="Sink&lt;br&gt;Processor" style="ellipse;whiteSpace=wrap;html=1;aspect=fixed;" vertex="1" parent="2oByHQfNDszcQ_HSohr_-1">
          <mxGeometry x="100" y="560" width="80" height="80" as="geometry" />
        </mxCell>
        <mxCell id="2oByHQfNDszcQ_HSohr_-11" value="&lt;h1&gt;DSL DAG&lt;/h1&gt;&lt;div&gt;假设我们使用 StreamBuilder 的 DSL (Domain Specific Language) 定义了如下图的几个 Processor 的数据流&lt;/div&gt;" style="text;html=1;strokeColor=none;fillColor=none;spacing=5;spacingTop=-20;whiteSpace=wrap;overflow=hidden;rounded=0;" vertex="1" parent="1">
          <mxGeometry x="40" y="10" width="290" height="120" as="geometry" />
        </mxCell>
        <mxCell id="2oByHQfNDszcQ_HSohr_-12" value="&lt;h1&gt;实际的 Processor DAG&lt;/h1&gt;&lt;div&gt;从左侧看可能只有5个 Processor 在流内处理。但是实际所创建的Processor如下图。&lt;/div&gt;&lt;div&gt;在我们使用 Repartition 时, 会先将数据写回 Kafka 的指定 repartition topic 中, 然后再从 repartition topic 中拉取数据进行进一步的处理.&lt;/div&gt;" style="text;html=1;strokeColor=none;fillColor=none;spacing=5;spacingTop=-20;whiteSpace=wrap;overflow=hidden;rounded=0;" vertex="1" parent="1">
          <mxGeometry x="480" y="20" width="290" height="130" as="geometry" />
        </mxCell>
        <mxCell id="2oByHQfNDszcQ_HSohr_-13" value="Kafka Stream Actual DAG" style="swimlane;whiteSpace=wrap;html=1;startSize=40;fontSize=16;" vertex="1" parent="1">
          <mxGeometry x="480" y="150" width="290" height="990" as="geometry" />
        </mxCell>
        <mxCell id="2oByHQfNDszcQ_HSohr_-14" style="edgeStyle=orthogonalEdgeStyle;rounded=0;orthogonalLoop=1;jettySize=auto;html=1;" edge="1" parent="2oByHQfNDszcQ_HSohr_-13" source="2oByHQfNDszcQ_HSohr_-15" target="2oByHQfNDszcQ_HSohr_-17">
          <mxGeometry relative="1" as="geometry" />
        </mxCell>
        <mxCell id="2oByHQfNDszcQ_HSohr_-15" value="Source&lt;br&gt;Processor" style="ellipse;whiteSpace=wrap;html=1;aspect=fixed;" vertex="1" parent="2oByHQfNDszcQ_HSohr_-13">
          <mxGeometry x="100" y="80" width="80" height="80" as="geometry" />
        </mxCell>
        <mxCell id="2oByHQfNDszcQ_HSohr_-16" style="edgeStyle=orthogonalEdgeStyle;rounded=0;orthogonalLoop=1;jettySize=auto;html=1;" edge="1" parent="2oByHQfNDszcQ_HSohr_-13" source="2oByHQfNDszcQ_HSohr_-17" target="2oByHQfNDszcQ_HSohr_-19">
          <mxGeometry relative="1" as="geometry" />
        </mxCell>
        <mxCell id="2oByHQfNDszcQ_HSohr_-17" value="SelectKey&lt;br&gt;Processor" style="ellipse;whiteSpace=wrap;html=1;aspect=fixed;" vertex="1" parent="2oByHQfNDszcQ_HSohr_-13">
          <mxGeometry x="100" y="207" width="80" height="80" as="geometry" />
        </mxCell>
        <mxCell id="2oByHQfNDszcQ_HSohr_-24" value="" style="edgeStyle=orthogonalEdgeStyle;rounded=0;orthogonalLoop=1;jettySize=auto;html=1;" edge="1" parent="2oByHQfNDszcQ_HSohr_-13" source="2oByHQfNDszcQ_HSohr_-19" target="2oByHQfNDszcQ_HSohr_-23">
          <mxGeometry relative="1" as="geometry" />
        </mxCell>
        <mxCell id="2oByHQfNDszcQ_HSohr_-19" value="Repartition&lt;br&gt;Processor" style="ellipse;whiteSpace=wrap;html=1;aspect=fixed;dashed=1;" vertex="1" parent="2oByHQfNDszcQ_HSohr_-13">
          <mxGeometry x="100" y="333" width="80" height="80" as="geometry" />
        </mxCell>
        <mxCell id="2oByHQfNDszcQ_HSohr_-20" value="" style="edgeStyle=orthogonalEdgeStyle;rounded=0;orthogonalLoop=1;jettySize=auto;html=1;" edge="1" parent="2oByHQfNDszcQ_HSohr_-13" source="2oByHQfNDszcQ_HSohr_-21" target="2oByHQfNDszcQ_HSohr_-22">
          <mxGeometry relative="1" as="geometry" />
        </mxCell>
        <mxCell id="2oByHQfNDszcQ_HSohr_-21" value="Map&lt;br&gt;Processor" style="ellipse;whiteSpace=wrap;html=1;aspect=fixed;" vertex="1" parent="2oByHQfNDszcQ_HSohr_-13">
          <mxGeometry x="100" y="713" width="80" height="80" as="geometry" />
        </mxCell>
        <mxCell id="2oByHQfNDszcQ_HSohr_-22" value="Sink&lt;br&gt;Processor" style="ellipse;whiteSpace=wrap;html=1;aspect=fixed;" vertex="1" parent="2oByHQfNDszcQ_HSohr_-13">
          <mxGeometry x="100" y="840" width="80" height="80" as="geometry" />
        </mxCell>
        <mxCell id="2oByHQfNDszcQ_HSohr_-26" value="" style="edgeStyle=orthogonalEdgeStyle;rounded=0;orthogonalLoop=1;jettySize=auto;html=1;" edge="1" parent="2oByHQfNDszcQ_HSohr_-13" source="2oByHQfNDszcQ_HSohr_-23" target="2oByHQfNDszcQ_HSohr_-25">
          <mxGeometry relative="1" as="geometry" />
        </mxCell>
        <mxCell id="2oByHQfNDszcQ_HSohr_-23" value="Sink&lt;br&gt;Processor" style="ellipse;whiteSpace=wrap;html=1;aspect=fixed;" vertex="1" parent="2oByHQfNDszcQ_HSohr_-13">
          <mxGeometry x="100" y="460" width="80" height="80" as="geometry" />
        </mxCell>
        <mxCell id="2oByHQfNDszcQ_HSohr_-27" style="edgeStyle=orthogonalEdgeStyle;rounded=0;orthogonalLoop=1;jettySize=auto;html=1;" edge="1" parent="2oByHQfNDszcQ_HSohr_-13" source="2oByHQfNDszcQ_HSohr_-25" target="2oByHQfNDszcQ_HSohr_-21">
          <mxGeometry relative="1" as="geometry" />
        </mxCell>
        <mxCell id="2oByHQfNDszcQ_HSohr_-25" value="Source&lt;br&gt;Processor" style="ellipse;whiteSpace=wrap;html=1;aspect=fixed;" vertex="1" parent="2oByHQfNDszcQ_HSohr_-13">
          <mxGeometry x="100" y="587" width="80" height="80" as="geometry" />
        </mxCell>
      </root>
    </mxGraphModel>
  </diagram>
</mxfile>
